<?xml version="1.0" standalone="no"?>
<!DOCTYPE svg PUBLIC "-//W3C//DTD SVG 20010904//EN"
 "http://www.w3.org/TR/2001/REC-SVG-20010904/DTD/svg10.dtd">
<svg version="1.0" xmlns="http://www.w3.org/2000/svg"
 width="512.000000pt" height="512.000000pt" viewBox="0 0 512.000000 512.000000"
 preserveAspectRatio="xMidYMid meet">
<metadata>
Created by potrace 1.11, written by Peter Selinger 2001-2013
</metadata>
<g transform="translate(0.000000,512.000000) scale(0.100000,-0.100000)"
fill="#000000" stroke="none">
<path d="M4977 3694 c-1 -1 -29 -5 -62 -8 -33 -4 -73 -9 -90 -11 -16 -2 -55
-6 -85 -9 -30 -4 -73 -9 -95 -12 -22 -3 -58 -7 -80 -10 -22 -2 -49 -5 -60 -7
-11 -3 -51 -8 -90 -11 -38 -4 -77 -9 -85 -11 -13 -4 -37 -7 -160 -20 -19 -2
-48 -6 -65 -8 -16 -3 -57 -8 -90 -12 -76 -8 -98 -11 -160 -19 -27 -4 -63 -9
-80 -11 -101 -13 -215 -27 -245 -31 -19 -2 -53 -6 -75 -9 -22 -2 -62 -7 -90
-10 -27 -4 -57 -8 -65 -10 -8 -2 -46 -7 -85 -10 -38 -4 -81 -9 -95 -11 -14 -3
-47 -7 -75 -9 -27 -3 -66 -8 -85 -11 -19 -3 -48 -8 -65 -10 -53 -6 -108 -13
-170 -20 -33 -3 -69 -8 -80 -10 -29 -6 -114 -16 -155 -19 -19 -2 -48 -5 -65
-8 -33 -6 -107 -16 -170 -23 -22 -2 -49 -6 -60 -8 -11 -2 -51 -7 -90 -11 -38
-4 -79 -9 -90 -11 -11 -2 -42 -6 -70 -9 -63 -7 -111 -13 -200 -25 -38 -5 -94
-12 -124 -15 -30 -3 -57 -7 -60 -9 -3 -2 -38 -7 -77 -10 -39 -4 -82 -9 -95
-12 -13 -3 -43 -7 -65 -9 -23 -2 -57 -6 -75 -9 -19 -3 -56 -8 -84 -11 -27 -4
-61 -8 -75 -11 -14 -2 -52 -6 -85 -9 -33 -3 -71 -8 -85 -10 -40 -7 -81 -13
-150 -20 -36 -4 -72 -9 -81 -10 -9 -2 -40 -6 -70 -10 -30 -3 -65 -8 -79 -10
-14 -3 -52 -8 -84 -11 -33 -3 -63 -7 -66 -9 -3 -2 -37 -7 -76 -10 -38 -4 -98
-12 -134 -19 l-65 -11 47 -35 c26 -19 47 -40 48 -47 0 -6 42 -43 92 -81 98
-73 389 -280 416 -297 10 -5 19 -12 22 -15 3 -3 59 -44 125 -90 179 -126 198
-146 221 -245 1 -5 19 -73 39 -150 20 -77 38 -151 41 -165 3 -14 9 -39 15 -56
5 -17 11 -41 14 -53 2 -12 13 -55 24 -95 11 -40 22 -83 25 -97 8 -45 66 -267
84 -326 22 -71 12 -75 241 89 333 239 394 279 405 268 6 -6 18 -10 28 -10 10
0 18 -4 18 -10 0 -5 5 -10 11 -10 8 0 196 -122 234 -153 6 -4 57 -40 115 -79
58 -39 150 -101 206 -139 55 -37 111 -70 125 -73 13 -2 31 -7 40 -10 10 -5 28
8 53 36 21 24 64 70 95 104 31 33 94 102 141 154 47 52 99 108 115 125 17 18
66 72 110 120 44 48 91 100 105 115 14 15 68 74 120 131 52 57 109 118 125
135 17 18 43 47 60 66 16 18 54 60 85 93 30 34 96 105 145 159 50 54 108 118
130 142 42 45 151 164 245 268 30 33 70 76 88 95 18 19 61 66 96 105 35 39 81
90 102 112 49 52 193 210 217 238 10 11 55 61 100 110 136 148 167 184 167
191 0 4 -68 3 -73 -1z"/>
</g>
</svg>
